<svg width="32" height="32" viewBox="0 0 32 32" fill="none" xmlns="http://www.w3.org/2000/svg">
<path d="M0.650002 31.5V18.5L5.00938 12L8.88438 18L12.7594 9.5L16.6344 14L20.5094 6L24.3844 11.5L28.2594 2.5L31.65 9V31.5H0.650002Z" fill="#333333" stroke="#333333" stroke-width="0.75" stroke-linejoin="round"/>
<path d="M31.9064 15.7838C32.0258 15.9531 31.9854 16.187 31.8162 16.3064C31.6469 16.4258 31.413 16.3854 31.2936 16.2162L31.9064 15.7838ZM28.0729 11L27.7519 10.8061C27.8174 10.6978 27.9331 10.6297 28.0596 10.6252C28.1861 10.6207 28.3064 10.6804 28.3793 10.7838L28.0729 11ZM24.1471 17.5L24.4681 17.6939C24.4002 17.8063 24.2785 17.875 24.1471 17.875C24.0158 17.875 23.894 17.8063 23.8261 17.6939L24.1471 17.5ZM20.2213 11L19.8747 10.8568C19.9288 10.726 20.0518 10.6368 20.1929 10.6261C20.334 10.6154 20.4692 10.685 20.5423 10.8061L20.2213 11ZM16.2955 20.5L16.6421 20.6432C16.5925 20.7632 16.4844 20.849 16.3563 20.87C16.2282 20.8911 16.0983 20.8444 16.0129 20.7465L16.2955 20.5ZM12.3697 16L12.0487 15.8061C12.1106 15.7036 12.2178 15.6368 12.3371 15.6264C12.4565 15.616 12.5736 15.6632 12.6523 15.7535L12.3697 16ZM8.44393 22.5L8.76492 22.6939C8.70727 22.7893 8.61012 22.8542 8.49984 22.8708C8.38957 22.8874 8.27762 22.8541 8.19438 22.7799L8.44393 22.5ZM4.51813 19L4.19697 18.8064C4.25457 18.7108 4.35173 18.6459 4.46205 18.6292C4.57237 18.6125 4.6844 18.6458 4.76768 18.7201L4.51813 19ZM31.2936 16.2162L27.7665 11.2162L28.3793 10.7838L31.9064 15.7838L31.2936 16.2162ZM28.3939 11.1939L24.4681 17.6939L23.8261 17.3061L27.7519 10.8061L28.3939 11.1939ZM23.8261 17.6939L19.9003 11.1939L20.5423 10.8061L24.4681 17.3061L23.8261 17.6939ZM20.5679 11.1432L16.6421 20.6432L15.9489 20.3568L19.8747 10.8568L20.5679 11.1432ZM16.0129 20.7465L12.0871 16.2465L12.6523 15.7535L16.5781 20.2535L16.0129 20.7465ZM12.6907 16.1939L8.76492 22.6939L8.12293 22.3061L12.0487 15.8061L12.6907 16.1939ZM8.19438 22.7799L4.26858 19.2799L4.76768 18.7201L8.69348 22.2201L8.19438 22.7799ZM4.83929 19.1936L0.921162 25.6936L0.278835 25.3064L4.19697 18.8064L4.83929 19.1936Z" fill="white"/>
<path d="M31.923 21.7902C32.0282 21.9686 31.9689 22.1985 31.7905 22.3037C31.6121 22.4089 31.3822 22.3496 31.277 22.1712L31.923 21.7902ZM28.0729 16L27.7365 15.8344C27.7973 15.7107 27.9211 15.6305 28.0588 15.6253C28.1965 15.6201 28.3259 15.6908 28.3959 15.8095L28.0729 16ZM24.1471 23.9743L24.4836 24.1399C24.4267 24.2555 24.3145 24.3337 24.1864 24.3472C24.0583 24.3607 23.9322 24.3075 23.8525 24.2063L24.1471 23.9743ZM20.2213 18.9904L19.8893 18.816C19.9484 18.7035 20.0604 18.6286 20.1869 18.6169C20.3135 18.6053 20.4373 18.6585 20.5159 18.7583L20.2213 18.9904ZM16.2955 26.4662L16.6275 26.6406C16.5685 26.7531 16.4564 26.828 16.3299 26.8397C16.2034 26.8513 16.0796 26.7981 16.0009 26.6983L16.2955 26.4662ZM12.3697 21.4823L12.0648 21.264C12.1335 21.1681 12.2432 21.1101 12.3611 21.1074C12.479 21.1047 12.5913 21.1576 12.6643 21.2503L12.3697 21.4823ZM8.44393 26.9646L8.74882 27.183C8.68979 27.2654 8.59992 27.3204 8.49967 27.3355C8.39942 27.3505 8.29734 27.3244 8.21669 27.2629L8.44393 26.9646ZM4.51813 23.9743L4.2357 23.7276C4.36554 23.5789 4.58836 23.5564 4.74536 23.676L4.51813 23.9743ZM31.277 22.1712L27.7499 16.1905L28.3959 15.8095L31.923 21.7902L31.277 22.1712ZM28.4094 16.1656L24.4836 24.1399L23.8107 23.8086L27.7365 15.8344L28.4094 16.1656ZM23.8525 24.2063L19.9267 19.2224L20.5159 18.7583L24.4417 23.7422L23.8525 24.2063ZM20.5533 19.1647L16.6275 26.6406L15.9635 26.2919L19.8893 18.816L20.5533 19.1647ZM16.0009 26.6983L12.0751 21.7144L12.6643 21.2503L16.5901 26.2342L16.0009 26.6983ZM12.6746 21.7006L8.74882 27.183L8.13904 26.7463L12.0648 21.264L12.6746 21.7006ZM8.21669 27.2629L4.2909 24.2726L4.74536 23.676L8.67116 26.6663L8.21669 27.2629ZM4.80055 24.221L0.882424 28.7065L0.317573 28.2131L4.2357 23.7276L4.80055 24.221Z" fill="white"/>
<rect x="31.25" y="9" width="0.75" height="23" fill="#333333"/>
<rect width="0.75" height="32" fill="#333333"/>
<rect y="31.25" width="32" height="0.75" fill="#333333"/>
</svg>
