<svg width="32" height="32" viewBox="0 0 32 32" fill="none" xmlns="http://www.w3.org/2000/svg">
<path d="M0.549994 31.5V18.5L4.92343 12L8.81093 18L12.6984 9.5L16.5859 14L20.4734 6L24.3609 11.5L28.2484 2.5L31.75 9L31.65 31.5H0.549994Z" fill="white"/>
<path d="M0.549994 18.5H0.174994C0.174994 18.4254 0.197231 18.3525 0.238863 18.2907L0.549994 18.5ZM0.549994 31.5V31.875C0.342886 31.875 0.174994 31.7071 0.174994 31.5H0.549994ZM31.65 31.5L32.025 31.5017C32.0241 31.7081 31.8565 31.875 31.65 31.875V31.5ZM31.75 9L32.0801 8.82215L32.1254 8.9062L32.125 9.00167L31.75 9ZM28.2484 2.5L27.9042 2.3513C27.9612 2.21933 28.0886 2.13156 28.2322 2.12535C28.3759 2.11914 28.5104 2.19559 28.5786 2.32215L28.2484 2.5ZM24.3609 11.5L24.7052 11.6487C24.6514 11.7732 24.5346 11.8589 24.3998 11.873C24.2649 11.887 24.133 11.8272 24.0547 11.7164L24.3609 11.5ZM20.4734 6L20.1361 5.8361C20.1941 5.71683 20.3107 5.63704 20.4429 5.62624C20.5751 5.61545 20.7031 5.67526 20.7797 5.78355L20.4734 6ZM16.5859 14L16.9232 14.1639C16.8681 14.2773 16.7596 14.3555 16.6346 14.3718C16.5095 14.3882 16.3846 14.3406 16.3022 14.2451L16.5859 14ZM12.6984 9.5L12.3574 9.34403C12.4105 9.22792 12.519 9.1468 12.6454 9.12876C12.7718 9.11072 12.8987 9.15823 12.9822 9.25485L12.6984 9.5ZM8.81093 18L9.15196 18.156C9.09503 18.2804 8.97479 18.364 8.83827 18.374C8.70176 18.384 8.57065 18.3188 8.49622 18.2039L8.81093 18ZM4.92343 12L4.6123 11.7907C4.68262 11.6861 4.80072 11.6239 4.92669 11.625C5.05265 11.6261 5.16965 11.6904 5.23815 11.7961L4.92343 12ZM0.924994 18.5V31.5H0.174994V18.5H0.924994ZM0.549994 31.125H31.65V31.875H0.549994V31.125ZM31.275 31.4983L31.375 8.99833L32.125 9.00167L32.025 31.5017L31.275 31.4983ZM31.4199 9.17785L27.9183 2.67785L28.5786 2.32215L32.0801 8.82215L31.4199 9.17785ZM28.5927 2.6487L24.7052 11.6487L24.0167 11.3513L27.9042 2.3513L28.5927 2.6487ZM24.0547 11.7164L20.1672 6.21645L20.7797 5.78355L24.6672 11.2836L24.0547 11.7164ZM20.8107 6.1639L16.9232 14.1639L16.2486 13.8361L20.1361 5.8361L20.8107 6.1639ZM16.3022 14.2451L12.4147 9.74515L12.9822 9.25485L16.8697 13.7549L16.3022 14.2451ZM13.0395 9.65597L9.15196 18.156L8.46991 17.844L12.3574 9.34403L13.0395 9.65597ZM8.49622 18.2039L4.60872 12.2039L5.23815 11.7961L9.12565 17.7961L8.49622 18.2039ZM5.23456 12.2093L0.861124 18.7093L0.238863 18.2907L4.6123 11.7907L5.23456 12.2093Z" fill="#333333"/>
<path d="M31.9061 15.7834C32.0257 15.9524 31.9857 16.1865 31.8166 16.3061C31.6476 16.4257 31.4135 16.3857 31.2939 16.2166L31.9061 15.7834ZM28.0615 11L27.7408 10.8057C27.8063 10.6976 27.9219 10.6297 28.0482 10.6252C28.1745 10.6207 28.2946 10.6802 28.3676 10.7834L28.0615 11ZM24.1231 17.5L24.4438 17.6943C24.3758 17.8065 24.2542 17.875 24.1231 17.875C23.9919 17.875 23.8703 17.8065 23.8024 17.6943L24.1231 17.5ZM20.1846 11L19.8382 10.8564C19.8923 10.7258 20.0153 10.6368 20.1562 10.6261C20.2971 10.6154 20.4321 10.6848 20.5053 10.8057L20.1846 11ZM16.2462 20.5L16.5926 20.6436C16.5429 20.7634 16.4349 20.849 16.307 20.87C16.1791 20.8911 16.0494 20.8445 15.964 20.747L16.2462 20.5ZM12.3077 16L11.987 15.8057C12.0489 15.7034 12.156 15.6368 12.2751 15.6264C12.3942 15.616 12.5111 15.663 12.5899 15.753L12.3077 16ZM8.36924 22.5L8.68996 22.6943C8.63227 22.7895 8.53526 22.8542 8.42519 22.8708C8.31511 22.8874 8.20335 22.8543 8.12014 22.7803L8.36924 22.5ZM4.43078 19L4.10989 18.8059C4.16753 18.7106 4.26454 18.6459 4.37467 18.6292C4.48479 18.6126 4.59663 18.6457 4.67988 18.7197L4.43078 19ZM31.2939 16.2166L27.7554 11.2166L28.3676 10.7834L31.9061 15.7834L31.2939 16.2166ZM28.3823 11.1943L24.4438 17.6943L23.8024 17.3057L27.7408 10.8057L28.3823 11.1943ZM23.8024 17.6943L19.8639 11.1943L20.5053 10.8057L24.4438 17.3057L23.8024 17.6943ZM20.531 11.1436L16.5926 20.6436L15.8998 20.3564L19.8382 10.8564L20.531 11.1436ZM15.964 20.747L12.0255 16.247L12.5899 15.753L16.5283 20.253L15.964 20.747ZM12.6284 16.1943L8.68996 22.6943L8.04852 22.3057L11.987 15.8057L12.6284 16.1943ZM8.12014 22.7803L4.18168 19.2803L4.67988 18.7197L8.61834 22.2197L8.12014 22.7803ZM4.75167 19.1941L0.820897 25.6941L0.179122 25.3059L4.10989 18.8059L4.75167 19.1941Z" fill="#333333"/>
<path d="M31.923 21.8095C32.0282 21.9879 31.9689 22.2178 31.7905 22.323C31.6121 22.4282 31.3822 22.3689 31.277 22.1905L31.923 21.8095ZM28.0615 16L27.7251 15.8344C27.786 15.7107 27.9097 15.6305 28.0474 15.6253C28.1851 15.6201 28.3146 15.6908 28.3846 15.8095L28.0615 16ZM24.1231 24L24.4595 24.1656C24.4026 24.2812 24.2904 24.3595 24.1623 24.3729C24.0342 24.3864 23.9082 24.3332 23.8285 24.232L24.1231 24ZM20.1846 19L19.8526 18.8257C19.9117 18.7132 20.0237 18.6382 20.1502 18.6266C20.2768 18.6149 20.4006 18.6681 20.4792 18.768L20.1846 19ZM16.2462 26.5L16.5782 26.6743C16.5191 26.7868 16.4071 26.8618 16.2805 26.8734C16.154 26.8851 16.0302 26.8319 15.9516 26.732L16.2462 26.5ZM12.3077 21.5L12.0028 21.2817C12.0715 21.1858 12.1812 21.1278 12.2991 21.1251C12.417 21.1224 12.5293 21.1753 12.6023 21.268L12.3077 21.5ZM8.36924 27L8.67413 27.2183C8.61511 27.3007 8.52523 27.3558 8.42498 27.3708C8.32473 27.3859 8.22265 27.3597 8.142 27.2983L8.36924 27ZM4.43077 24L4.14835 23.7533C4.27818 23.6047 4.50101 23.5821 4.65801 23.7017L4.43077 24ZM31.277 22.1905L27.7385 16.1905L28.3846 15.8095L31.923 21.8095L31.277 22.1905ZM28.398 16.1656L24.4595 24.1656L23.7866 23.8344L27.7251 15.8344L28.398 16.1656ZM23.8285 24.232L19.89 19.232L20.4792 18.768L24.4177 23.768L23.8285 24.232ZM20.5166 19.1743L16.5782 26.6743L15.9142 26.3257L19.8526 18.8257L20.5166 19.1743ZM15.9516 26.732L12.0131 21.732L12.6023 21.268L16.5407 26.268L15.9516 26.732ZM12.6126 21.7183L8.67413 27.2183L8.06435 26.7817L12.0028 21.2817L12.6126 21.7183ZM8.142 27.2983L4.20354 24.2983L4.65801 23.7017L8.59647 26.7017L8.142 27.2983ZM4.7132 24.2467L0.782431 28.7467L0.21758 28.2533L4.14835 23.7533L4.7132 24.2467Z" fill="#333333"/>
<rect x="31.5" y="9" width="0.5" height="23" fill="#333333"/>
<rect width="0.75" height="32" fill="#333333"/>
<rect y="31.25" width="32" height="0.75" fill="#333333"/>
</svg>
