<svg width="32" height="32" viewBox="0 0 32 32" fill="none" xmlns="http://www.w3.org/2000/svg">
<rect y="8.32001" width="5.44" height="23.36" fill="#4E79A7"/>
<rect y="20" width="5.44" height="11.68" fill="#F28E2C"/>
<rect y="24.9551" width="5.44" height="6.72485" fill="#E15759"/>
<rect x="6.64" y="14.08" width="5.44" height="17.6" fill="#4E79A7"/>
<rect x="6.64" y="18.656" width="5.44" height="13.024" fill="#F28E2C"/>
<rect x="6.64" y="22.88" width="5.44" height="8.8" fill="#E15759"/>
<rect x="13.28" y="21.44" width="5.44" height="10.24" fill="#4E79A7"/>
<rect x="13.28" y="26.0303" width="5.44" height="5.64966" fill="#F28E2C"/>
<rect x="13.28" y="28.149" width="5.44" height="3.53103" fill="#E15759"/>
<rect x="19.92" width="5.44" height="31.68" fill="#4E79A7"/>
<rect x="19.92" y="13.376" width="5.44" height="18.304" fill="#F28E2C"/>
<rect x="19.92" y="24.992" width="5.44" height="6.688" fill="#E15759"/>
<rect x="26.56" y="17.28" width="5.44" height="14.4" fill="#4E79A7"/>
<rect x="26.56" y="23.602" width="5.44" height="8.07805" fill="#F28E2C"/>
<rect x="26.56" y="26.0605" width="5.44" height="5.61951" fill="#E15759"/>
<rect y="31.25" width="32" height="0.75" fill="#333333"/>
</svg>
