<svg width="32" height="32" viewBox="0 0 32 32" fill="none" xmlns="http://www.w3.org/2000/svg">
<mask id="mask0_1560_3" style="mask-type:alpha" maskUnits="userSpaceOnUse" x="0" y="0" width="32" height="32">
<circle cx="16" cy="16" r="16" fill="#333333"/>
</mask>
<g mask="url(#mask0_1560_3)">
<mask id="path-2-inside-1_1560_3" fill="white">
<path fill-rule="evenodd" clip-rule="evenodd" d="M16 32C24.8366 32 32 24.8366 32 16C32 7.16344 24.8366 0 16 0C7.16344 0 0 7.16344 0 16C0 24.8366 7.16344 32 16 32ZM16 26C21.5228 26 26 21.5228 26 16C26 10.4772 21.5228 6 16 6C10.4772 6 6 10.4772 6 16C6 21.5228 10.4772 26 16 26Z"/>
</mask>
<path fill-rule="evenodd" clip-rule="evenodd" d="M16 32C24.8366 32 32 24.8366 32 16C32 7.16344 24.8366 0 16 0C7.16344 0 0 7.16344 0 16C0 24.8366 7.16344 32 16 32ZM16 26C21.5228 26 26 21.5228 26 16C26 10.4772 21.5228 6 16 6C10.4772 6 6 10.4772 6 16C6 21.5228 10.4772 26 16 26Z" fill="white"/>
<path d="M31.25 16C31.25 24.4223 24.4223 31.25 16 31.25L16 32.75C25.2508 32.75 32.75 25.2508 32.75 16H31.25ZM16 0.75C24.4223 0.75 31.25 7.57766 31.25 16H32.75C32.75 6.74923 25.2508 -0.75 16 -0.75V0.75ZM0.75 16C0.75 7.57766 7.57766 0.75 16 0.75V-0.75C6.74923 -0.75 -0.75 6.74923 -0.75 16H0.75ZM16 31.25C7.57766 31.25 0.75 24.4223 0.75 16H-0.75C-0.75 25.2508 6.74923 32.75 16 32.75L16 31.25ZM25.25 16C25.25 21.1086 21.1086 25.25 16 25.25V26.75C21.9371 26.75 26.75 21.9371 26.75 16H25.25ZM16 6.75C21.1086 6.75 25.25 10.8914 25.25 16H26.75C26.75 10.0629 21.9371 5.25 16 5.25V6.75ZM6.75 16C6.75 10.8914 10.8914 6.75 16 6.75V5.25C10.0629 5.25 5.25 10.0629 5.25 16H6.75ZM16 25.25C10.8914 25.25 6.75 21.1086 6.75 16H5.25C5.25 21.9371 10.0629 26.75 16 26.75V25.25Z" fill="#333333" mask="url(#path-2-inside-1_1560_3)"/>
<rect x="11.65" y="31.5327" width="0.75" height="5.7" transform="rotate(-163.696 11.65 31.5327)" fill="#333333"/>
<rect x="31.3096" y="11.2771" width="0.75" height="5.8" transform="rotate(75.9486 31.3096 11.2771)" fill="#333333"/>
<rect x="15.5" y="-0.300003" width="0.75" height="6" fill="#333333"/>
</g>
</svg>
