<svg width="32" height="32" viewBox="0 0 32 32" fill="none" xmlns="http://www.w3.org/2000/svg">
<rect y="20.16" width="5.44" height="11.52" fill="#4E79A7"/>
<rect y="23.8871" width="5.44" height="7.79294" fill="#F28E2C"/>
<rect y="26.9365" width="5.44" height="4.74353" fill="#E15759"/>
<rect x="6.64" y="11.84" width="5.44" height="19.84" fill="#4E79A7"/>
<rect x="6.64" y="18.24" width="5.44" height="13.44" fill="#F28E2C"/>
<rect x="6.64" y="24.96" width="5.44" height="6.72" fill="#E15759"/>
<rect x="13.28" width="5.44" height="31.68" fill="#4E79A7"/>
<rect x="13.28" y="12.8" width="5.44" height="18.88" fill="#F28E2C"/>
<rect x="13.28" y="22.08" width="5.44" height="9.6" fill="#E15759"/>
<rect x="19.92" y="8.32001" width="5.44" height="23.36" fill="#4E79A7"/>
<rect x="19.92" y="16.4452" width="5.44" height="15.2348" fill="#F28E2C"/>
<rect x="19.92" y="23.8933" width="5.44" height="7.78667" fill="#E15759"/>
<rect x="26.56" y="16" width="5.44" height="15.68" fill="#4E79A7"/>
<rect x="26.56" y="22.8839" width="5.44" height="8.7961" fill="#F28E2C"/>
<rect x="26.56" y="27.84" width="5.44" height="3.84" fill="#E15759"/>
<rect y="31.25" width="32" height="0.75" fill="#333333"/>
</svg>
