<svg width="32" height="32" viewBox="0 0 32 32" fill="none" xmlns="http://www.w3.org/2000/svg">
<rect x="8.77145" y="12.2904" width="0.75" height="11.4412" transform="rotate(-52.1346 8.77145 12.2904)" fill="#333333"/>
<rect x="4.13827" y="25.3522" width="0.75" height="15.2326" transform="rotate(-113.208 4.13827 25.3522)" fill="#333333"/>
<rect x="15.351" y="29.103" width="0.75" height="10.4597" transform="rotate(-163.262 15.351 29.103)" fill="#333333"/>
<rect x="27.2771" y="28.7423" width="0.75" height="13.4604" transform="rotate(137.989 27.2771 28.7423)" fill="#333333"/>
<rect x="28.0673" y="20.636" width="0.75" height="10.1856" transform="rotate(101.327 28.0673 20.636)" fill="#333333"/>
<rect x="17.625" y="4" width="0.75" height="15" fill="#333333"/>
<rect x="28.8374" y="11.6901" width="0.75" height="13.0456" transform="rotate(57.5521 28.8374 11.6901)" fill="#333333"/>
<circle cx="18" cy="4" r="4" fill="#4E79A7"/>
<circle cx="4" cy="25" r="4" fill="#4E79A7"/>
<circle cx="18" cy="19" r="5" fill="#E15759"/>
<circle cx="29" cy="12" r="3" fill="#F28E2C"/>
<circle cx="28" cy="21" r="2" fill="#4E79A7"/>
<circle cx="9" cy="12" r="3" fill="#F28E2C"/>
<circle cx="15" cy="29" r="2" fill="#F28E2C"/>
<circle cx="27" cy="29" r="3" fill="#E15759"/>
</svg>
