<svg width="32" height="32" viewBox="0 0 32 32" fill="none" xmlns="http://www.w3.org/2000/svg">
<rect x="4.42113" y="27.0536" width="32" height="0.75" transform="rotate(-45 4.42113 27.0536)" fill="#333333"/>
<rect x="4.42612" y="4.95145" width="0.75" height="32" transform="rotate(-45 4.42612 4.95145)" fill="#333333"/>
<rect y="15.63" width="32" height="0.75" fill="#333333"/>
<rect x="15.63" width="0.75" height="32" fill="#333333"/>
<path d="M10 10L16 5.5L23.5 8.5L24 16L18 18L16 21.5L7.5 24.5L10.5 16L10 10Z" stroke="#333333" stroke-width="1.25" stroke-linejoin="round"/>
<path d="M8 8L16 9L19 13L29 16L21.5 22L16 29.5L12.5 19.5L4.5 16L8 8Z" stroke="#333333" stroke-width="1.25" stroke-linejoin="round"/>
<path d="M13 13L16 2L21.5 10.5L20 16L25 25L16 24L6 26L7.5 16L13 13Z" stroke="#333333" stroke-width="1.25" stroke-linejoin="round"/>
</svg>
